<svg xmlns="http://www.w3.org/2000/svg" xmlns:xlink="http://www.w3.org/1999/xlink" width="1920" zoomAndPan="magnify" viewBox="0 0 1440 809.999993" height="1080" preserveAspectRatio="xMidYMid meet" version="1.0"><defs><clipPath id="id1"><path d="M 0 208.710938 L 1440 208.710938 L 1440 810 L 0 810 Z M 0 208.710938 " clip-rule="nonzero"/></clipPath></defs><rect x="-144" width="1728" fill="#ffffff" y="-80.999999" height="971.999992" fill-opacity="1"/><rect x="-144" width="1728" fill="#ffffff" y="-80.999999" height="971.999992" fill-opacity="1"/><rect x="-144" width="1728" fill="#ffffff" y="-80.999999" height="971.999992" fill-opacity="1"/><rect x="-144" width="1728" fill="#ffffff" y="-80.999999" height="971.999992" fill-opacity="1"/><path fill="#000000" d="M 1656.953125 462.75 C 1656.953125 470.242188 1656.578125 477.730469 1655.824219 485.214844 C 1655.074219 492.699219 1653.945312 500.167969 1652.441406 507.625 C 1650.941406 515.082031 1649.0625 522.515625 1646.8125 529.929688 C 1644.5625 537.339844 1641.945312 544.71875 1638.953125 552.066406 C 1635.960938 559.417969 1632.601562 566.726562 1628.878906 573.992188 C 1625.152344 581.261719 1621.066406 588.480469 1616.613281 595.652344 C 1612.164062 602.820312 1607.355469 609.933594 1602.191406 616.988281 C 1597.027344 624.042969 1591.507812 631.03125 1585.640625 637.953125 C 1579.773438 644.875 1573.5625 651.722656 1567.007812 658.496094 C 1560.453125 665.269531 1553.5625 671.960938 1546.335938 678.570312 C 1539.109375 685.179688 1531.554688 691.695312 1523.671875 698.121094 C 1515.789062 704.546875 1507.589844 710.878906 1499.070312 717.105469 C 1490.554688 723.335938 1481.726562 729.460938 1472.59375 735.480469 C 1463.460938 741.496094 1454.03125 747.402344 1444.304688 753.195312 C 1434.578125 758.988281 1424.566406 764.660156 1414.273438 770.210938 C 1403.976562 775.761719 1393.40625 781.1875 1382.566406 786.484375 C 1371.722656 791.785156 1360.625 796.949219 1349.265625 801.980469 C 1337.902344 807.011719 1326.296875 811.90625 1314.445312 816.65625 C 1302.59375 821.410156 1290.511719 826.019531 1278.195312 830.484375 C 1265.882812 834.945312 1253.351562 839.257812 1240.601562 843.421875 C 1227.855469 847.585938 1214.90625 851.59375 1201.753906 855.445312 C 1188.605469 859.296875 1175.269531 862.988281 1161.746094 866.519531 C 1148.226562 870.054688 1134.535156 873.421875 1120.675781 876.625 C 1106.816406 879.828125 1092.804688 882.863281 1078.640625 885.730469 C 1064.476562 888.597656 1050.175781 891.292969 1035.738281 893.816406 C 1021.304688 896.34375 1006.75 898.691406 992.078125 900.867188 C 977.40625 903.042969 962.636719 905.039062 947.761719 906.859375 C 932.890625 908.679688 917.9375 910.320312 902.898438 911.785156 C 887.863281 913.246094 872.761719 914.527344 857.59375 915.625 C 842.429688 916.726562 827.214844 917.640625 811.957031 918.375 C 796.699219 919.109375 781.414062 919.660156 766.101562 920.03125 C 750.789062 920.398438 735.464844 920.582031 720.132812 920.582031 C 704.800781 920.582031 689.480469 920.398438 674.167969 920.03125 C 658.851562 919.660156 643.566406 919.109375 628.308594 918.375 C 613.050781 917.640625 597.839844 916.726562 582.675781 915.625 C 567.507812 914.527344 552.40625 913.246094 537.371094 911.785156 C 522.332031 910.320312 507.378906 908.679688 492.503906 906.859375 C 477.632812 905.039062 462.859375 903.042969 448.191406 900.867188 C 433.519531 898.691406 418.964844 896.34375 404.527344 893.816406 C 390.09375 891.292969 375.792969 888.597656 361.628906 885.730469 C 347.464844 882.863281 333.453125 879.828125 319.59375 876.625 C 305.730469 873.421875 292.042969 870.054688 278.519531 866.519531 C 265 862.988281 251.664062 859.296875 238.511719 855.445312 C 225.363281 851.59375 212.414062 847.585938 199.664062 843.421875 C 186.917969 839.257812 174.386719 834.945312 162.070312 830.484375 C 149.757812 826.019531 137.671875 821.410156 125.820312 816.65625 C 113.96875 811.90625 102.363281 807.011719 91.003906 801.980469 C 79.644531 796.949219 68.542969 791.785156 57.703125 786.484375 C 46.863281 781.1875 36.292969 775.761719 25.996094 770.210938 C 15.699219 764.660156 5.6875 758.988281 -4.039062 753.195312 C -13.761719 747.402344 -23.191406 741.496094 -32.328125 735.480469 C -41.460938 729.460938 -50.285156 723.335938 -58.804688 717.105469 C -67.320312 710.878906 -75.519531 704.550781 -83.402344 698.121094 C -91.285156 691.695312 -98.839844 685.179688 -106.066406 678.570312 C -113.292969 671.960938 -120.1875 665.269531 -126.742188 658.496094 C -133.296875 651.722656 -139.507812 644.875 -145.375 637.953125 C -151.242188 631.03125 -156.757812 624.042969 -161.921875 616.988281 C -167.085938 609.933594 -171.894531 602.820312 -176.347656 595.652344 C -180.796875 588.480469 -184.886719 581.261719 -188.609375 573.992188 C -192.335938 566.726562 -195.695312 559.417969 -198.683594 552.066406 C -201.675781 544.71875 -204.296875 537.339844 -206.546875 529.929688 C -208.796875 522.515625 -210.671875 515.082031 -212.175781 507.625 C -213.675781 500.167969 -214.804688 492.699219 -215.558594 485.214844 C -216.308594 477.730469 -216.683594 470.242188 -216.683594 462.75 C -216.683594 455.257812 -216.308594 447.769531 -215.558594 440.285156 C -214.804688 432.800781 -213.675781 425.332031 -212.175781 417.875 C -210.671875 410.417969 -208.796875 402.984375 -206.546875 395.570312 C -204.296875 388.160156 -201.675781 380.78125 -198.683594 373.429688 C -195.695312 366.082031 -192.335938 358.773438 -188.609375 351.507812 C -184.886719 344.238281 -180.796875 337.019531 -176.347656 329.847656 C -171.894531 322.679688 -167.085938 315.566406 -161.921875 308.511719 C -156.757812 301.457031 -151.242188 294.46875 -145.375 287.546875 C -139.507812 280.625 -133.296875 273.773438 -126.742188 267 C -120.1875 260.230469 -113.292969 253.539062 -106.066406 246.929688 C -98.839844 240.320312 -91.285156 233.804688 -83.402344 227.378906 C -75.519531 220.949219 -67.320312 214.621094 -58.804688 208.394531 C -50.285156 202.164062 -41.460938 196.039062 -32.328125 190.019531 C -23.191406 184.003906 -13.761719 178.097656 -4.039062 172.304688 C 5.6875 166.511719 15.699219 160.839844 25.996094 155.289062 C 36.292969 149.738281 46.863281 144.3125 57.703125 139.015625 C 68.542969 133.714844 79.644531 128.550781 91.003906 123.519531 C 102.363281 118.488281 113.96875 113.59375 125.820312 108.839844 C 137.671875 104.089844 149.757812 99.480469 162.070312 95.015625 C 174.386719 90.554688 186.917969 86.238281 199.664062 82.078125 C 212.414062 77.914062 225.363281 73.90625 238.511719 70.054688 C 251.664062 66.203125 265 62.511719 278.519531 58.980469 C 292.042969 55.445312 305.730469 52.078125 319.59375 48.875 C 333.453125 45.671875 347.464844 42.636719 361.628906 39.769531 C 375.792969 36.902344 390.09375 34.207031 404.527344 31.683594 C 418.964844 29.15625 433.519531 26.808594 448.191406 24.632812 C 462.859375 22.457031 477.632812 20.460938 492.503906 18.640625 C 507.378906 16.820312 522.332031 15.179688 537.371094 13.714844 C 552.40625 12.253906 567.507812 10.972656 582.675781 9.875 C 597.839844 8.773438 613.050781 7.859375 628.308594 7.125 C 643.566406 6.390625 658.851562 5.839844 674.167969 5.46875 C 689.480469 5.101562 704.800781 4.917969 720.132812 4.917969 C 735.464844 4.917969 750.789062 5.101562 766.101562 5.46875 C 781.414062 5.839844 796.699219 6.390625 811.957031 7.125 C 827.214844 7.859375 842.429688 8.773438 857.59375 9.875 C 872.761719 10.972656 887.863281 12.253906 902.898438 13.714844 C 917.9375 15.179688 932.890625 16.820312 947.761719 18.640625 C 962.636719 20.460938 977.40625 22.457031 992.078125 24.632812 C 1006.75 26.808594 1021.304688 29.15625 1035.738281 31.683594 C 1050.175781 34.207031 1064.476562 36.902344 1078.640625 39.769531 C 1092.804688 42.636719 1106.816406 45.671875 1120.675781 48.875 C 1134.535156 52.078125 1148.226562 55.445312 1161.746094 58.980469 C 1175.269531 62.511719 1188.605469 66.203125 1201.753906 70.054688 C 1214.90625 73.90625 1227.855469 77.914062 1240.601562 82.078125 C 1253.351562 86.238281 1265.882812 90.554688 1278.195312 95.015625 C 1290.511719 99.480469 1302.59375 104.089844 1314.445312 108.839844 C 1326.296875 113.59375 1337.902344 118.488281 1349.265625 123.519531 C 1360.625 128.550781 1371.722656 133.714844 1382.566406 139.015625 C 1393.40625 144.3125 1403.976562 149.738281 1414.273438 155.289062 C 1424.566406 160.839844 1434.578125 166.511719 1444.304688 172.304688 C 1454.03125 178.097656 1463.460938 184.003906 1472.59375 190.019531 C 1481.726562 196.039062 1490.554688 202.164062 1499.070312 208.394531 C 1507.589844 214.621094 1515.789062 220.949219 1523.671875 227.378906 C 1531.554688 233.804688 1539.109375 240.320312 1546.335938 246.929688 C 1553.5625 253.539062 1560.453125 260.230469 1567.007812 267 C 1573.5625 273.773438 1579.773438 280.625 1585.640625 287.546875 C 1591.507812 294.46875 1597.027344 301.457031 1602.191406 308.511719 C 1607.355469 315.566406 1612.164062 322.679688 1616.613281 329.847656 C 1621.066406 337.019531 1625.152344 344.238281 1628.878906 351.507812 C 1632.601562 358.773438 1635.960938 366.082031 1638.953125 373.429688 C 1641.945312 380.78125 1644.5625 388.160156 1646.8125 395.570312 C 1649.0625 402.984375 1650.941406 410.417969 1652.441406 417.875 C 1653.945312 425.332031 1655.074219 432.800781 1655.824219 440.285156 C 1656.578125 447.769531 1656.953125 455.257812 1656.953125 462.75 Z M 1656.953125 462.75 " fill-opacity="1" fill-rule="nonzero"/><path fill="#000000" d="M 720.132812 56.757812 C 843.90625 56.757812 963.894531 68.484375 1077.070312 91.945312 C 1184.949219 114.269531 1281.847656 146.050781 1364.363281 186.539062 C 1443.09375 225.132812 1507.0625 271.292969 1549.078125 319.726562 C 1589.199219 366.265625 1609.640625 414.316406 1609.640625 462.75 C 1609.640625 511.183594 1589.199219 559.234375 1549.078125 605.773438 C 1507.0625 654.207031 1443.09375 700.367188 1364.363281 738.960938 C 1281.847656 779.449219 1184.949219 811.230469 1077.070312 833.554688 C 964.273438 857.015625 844.285156 868.742188 720.132812 868.742188 C 595.980469 868.742188 476.371094 857.015625 363.195312 833.554688 C 255.320312 811.230469 158.421875 779.449219 75.90625 738.960938 C -2.824219 700.367188 -66.792969 654.207031 -108.808594 605.773438 C -148.929688 559.234375 -169.371094 511.183594 -169.371094 462.75 C -169.371094 414.316406 -148.929688 366.265625 -108.808594 319.726562 C -66.792969 271.292969 -2.824219 225.132812 75.90625 186.539062 C 158.421875 146.050781 255.320312 114.269531 363.195312 91.945312 C 476.371094 68.863281 596.359375 56.757812 720.132812 56.757812 M 720.132812 0 C 197.40625 0 -226.148438 207.347656 -226.148438 462.75 C -226.148438 718.152344 197.40625 925.5 720.132812 925.5 C 1242.859375 925.5 1666.417969 718.53125 1666.417969 462.75 C 1666.417969 207.347656 1242.859375 0 720.132812 0 Z M 720.132812 0 " fill-opacity="1" fill-rule="nonzero"/><g clip-path="url(#id1)"><path fill="#000000" d="M 0.0117188 208.710938 L 1439.984375 208.710938 L 1439.984375 810.210938 L 0.0117188 810.210938 L 0.0117188 208.710938 " fill-opacity="1" fill-rule="nonzero"/></g></svg>